{
  "accessors": [
    {
      "name": "FLOOR_1_0_positions",
      "componentType": 5126,
      "count": 76,
      "min": [
        -225,
        126,
        -336
      ],
      "max": [
        225,
        132,
        324
      ],
      "type": "VEC3",
      "bufferView": 0,
      "byteOffset": 0
    },
    {
      "name": "FLOOR_1_0_indices",
      "componentType": 5123,
      "count": 444,
      "min": [
        0
      ],
      "max": [
        75
      ],
      "type": "SCALAR",
      "bufferView": 2,
      "byteOffset": 0
    },
    {
      "name": "ROOF_1_1_0_positions",
      "componentType": 5126,
      "count": 812,
      "min": [
        -243,
        726,
        -342
      ],
      "max": [
        243,
        858,
        330.0000915527344
      ],
      "type": "VEC3",
      "bufferView": 0,
      "byteOffset": 912
    },
    {
      "name": "ROOF_1_1_0_texcoords",
      "componentType": 5126,
      "count": 812,
      "min": [
        -27.5,
        -27.5
      ],
      "max": [
        28.5,
        28.5
      ],
      "type": "VEC2",
      "bufferView": 1,
      "byteOffset": 0
    },
    {
      "name": "ROOF_1_1_0_indices",
      "componentType": 5123,
      "count": 1500,
      "min": [
        0
      ],
      "max": [
        811
      ],
      "type": "SCALAR",
      "bufferView": 2,
      "byteOffset": 888
    },
    {
      "name": "DOOR_1_0_positions",
      "componentType": 5126,
      "count": 1200,
      "min": [
        -171,
        132,
        -84
      ],
      "max": [
        -87,
        696,
        234
      ],
      "type": "VEC3",
      "bufferView": 0,
      "byteOffset": 10656
    },
    {
      "name": "DOOR_1_0_texcoords",
      "componentType": 5126,
      "count": 1200,
      "min": [
        0,
        0
      ],
      "max": [
        1,
        1
      ],
      "type": "VEC2",
      "bufferView": 1,
      "byteOffset": 6496
    },
    {
      "name": "DOOR_1_0_indices",
      "componentType": 5123,
      "count": 6120,
      "min": [
        0
      ],
      "max": [
        1199
      ],
      "type": "SCALAR",
      "bufferView": 2,
      "byteOffset": 3888
    },
    {
      "name": "DOOR_1_1_positions",
      "componentType": 5126,
      "count": 120,
      "min": [
        -168.22349548339844,
        136,
        -79
      ],
      "max": [
        -89.77649688720703,
        691,
        229
      ],
      "type": "VEC3",
      "bufferView": 0,
      "byteOffset": 25056
    },
    {
      "name": "DOOR_1_1_texcoords",
      "componentType": 5126,
      "count": 120,
      "min": [
        0,
        0
      ],
      "max": [
        1,
        1
      ],
      "type": "VEC2",
      "bufferView": 1,
      "byteOffset": 16096
    },
    {
      "name": "DOOR_1_1_indices",
      "componentType": 5123,
      "count": 540,
      "min": [
        0
      ],
      "max": [
        119
      ],
      "type": "SCALAR",
      "bufferView": 2,
      "byteOffset": 16128
    },
    {
      "name": "WINDOW_1_0_positions",
      "componentType": 5126,
      "count": 4240,
      "min": [
        -231,
        132,
        -330
      ],
      "max": [
        231.00010681152344,
        696,
        330
      ],
      "type": "VEC3",
      "bufferView": 0,
      "byteOffset": 26496
    },
    {
      "name": "WINDOW_1_0_texcoords",
      "componentType": 5126,
      "count": 4240,
      "min": [
        0,
        0
      ],
      "max": [
        1,
        1
      ],
      "type": "VEC2",
      "bufferView": 1,
      "byteOffset": 17056
    },
    {
      "name": "WINDOW_1_0_indices",
      "componentType": 5123,
      "count": 23880,
      "min": [
        0
      ],
      "max": [
        4239
      ],
      "type": "SCALAR",
      "bufferView": 2,
      "byteOffset": 17208
    },
    {
      "name": "WINDOW_1_1_positions",
      "componentType": 5126,
      "count": 800,
      "min": [
        -228.22349548339844,
        135,
        -327.276611328125
      ],
      "max": [
        228.27659606933594,
        693,
        327.2235107421875
      ],
      "type": "VEC3",
      "bufferView": 0,
      "byteOffset": 77376
    },
    {
      "name": "WINDOW_1_1_texcoords",
      "componentType": 5126,
      "count": 800,
      "min": [
        0,
        0
      ],
      "max": [
        1,
        1
      ],
      "type": "VEC2",
      "bufferView": 1,
      "byteOffset": 50976
    },
    {
      "name": "WINDOW_1_1_indices",
      "componentType": 5123,
      "count": 3600,
      "min": [
        0
      ],
      "max": [
        799
      ],
      "type": "SCALAR",
      "bufferView": 2,
      "byteOffset": 64968
    },
    {
      "name": "WALL_1_0_positions",
      "componentType": 5126,
      "count": 9745,
      "min": [
        -243,
        125.9999008178711,
        -342
      ],
      "max": [
        243,
        732,
        342.0000915527344
      ],
      "type": "VEC3",
      "bufferView": 0,
      "byteOffset": 86976
    },
    {
      "name": "WALL_1_0_texcoords",
      "componentType": 5126,
      "count": 9745,
      "min": [
        0,
        0
      ],
      "max": [
        1,
        1
      ],
      "type": "VEC2",
      "bufferView": 1,
      "byteOffset": 57376
    },
    {
      "name": "WALL_1_0_indices",
      "componentType": 5123,
      "count": 24840,
      "min": [
        0
      ],
      "max": [
        9744
      ],
      "type": "SCALAR",
      "bufferView": 2,
      "byteOffset": 72168
    },
    {
      "name": "ROOF_2_1_0_positions",
      "componentType": 5126,
      "count": 80,
      "min": [
        105,
        732,
        102
      ],
      "max": [
        141,
        816,
        108.0000991821289
      ],
      "type": "VEC3",
      "bufferView": 0,
      "byteOffset": 203916
    },
    {
      "name": "ROOF_2_1_0_texcoords",
      "componentType": 5126,
      "count": 80,
      "min": [
        0,
        0
      ],
      "max": [
        1,
        1
      ],
      "type": "VEC2",
      "bufferView": 1,
      "byteOffset": 135336
    },
    {
      "name": "ROOF_2_1_0_indices",
      "componentType": 5123,
      "count": 408,
      "min": [
        0
      ],
      "max": [
        79
      ],
      "type": "SCALAR",
      "bufferView": 2,
      "byteOffset": 121848
    },
    {
      "name": "ROOF_2_1_1_positions",
      "componentType": 5126,
      "count": 8,
      "min": [
        110,
        796,
        104.77660369873047
      ],
      "max": [
        136,
        811,
        105.27660369873047
      ],
      "type": "VEC3",
      "bufferView": 0,
      "byteOffset": 204876
    },
    {
      "name": "ROOF_2_1_1_texcoords",
      "componentType": 5126,
      "count": 8,
      "min": [
        0,
        0
      ],
      "max": [
        1,
        1
      ],
      "type": "VEC2",
      "bufferView": 1,
      "byteOffset": 135976
    },
    {
      "name": "ROOF_2_1_1_indices",
      "componentType": 5123,
      "count": 36,
      "min": [
        0
      ],
      "max": [
        7
      ],
      "type": "SCALAR",
      "bufferView": 2,
      "byteOffset": 122664
    },
    {
      "name": "GROUND_FLOOR_2_1_0_positions",
      "componentType": 5126,
      "count": 192,
      "min": [
        68.9999008178711,
        6,
        -17.999900817871094
      ],
      "max": [
        231,
        90,
        312.0000915527344
      ],
      "type": "VEC3",
      "bufferView": 0,
      "byteOffset": 204972
    },
    {
      "name": "GROUND_FLOOR_2_1_0_texcoords",
      "componentType": 5126,
      "count": 192,
      "min": [
        0,
        0
      ],
      "max": [
        1,
        1
      ],
      "type": "VEC2",
      "bufferView": 1,
      "byteOffset": 136040
    },
    {
      "name": "GROUND_FLOOR_2_1_0_indices",
      "componentType": 5123,
      "count": 1056,
      "min": [
        0
      ],
      "max": [
        191
      ],
      "type": "SCALAR",
      "bufferView": 2,
      "byteOffset": 122736
    },
    {
      "name": "GROUND_FLOOR_2_1_1_positions",
      "componentType": 5126,
      "count": 32,
      "min": [
        71.9999008178711,
        9,
        -15.276399612426758
      ],
      "max": [
        228.27650451660156,
        87,
        309.2235107421875
      ],
      "type": "VEC3",
      "bufferView": 0,
      "byteOffset": 207276
    },
    {
      "name": "GROUND_FLOOR_2_1_1_texcoords",
      "componentType": 5126,
      "count": 32,
      "min": [
        0,
        0
      ],
      "max": [
        1,
        1
      ],
      "type": "VEC2",
      "bufferView": 1,
      "byteOffset": 137576
    },
    {
      "name": "GROUND_FLOOR_2_1_1_indices",
      "componentType": 5123,
      "count": 144,
      "min": [
        0
      ],
      "max": [
        31
      ],
      "type": "SCALAR",
      "bufferView": 2,
      "byteOffset": 124848
    },
    {
      "name": "BALCONY_1_0_positions",
      "componentType": 5126,
      "count": 1400,
      "min": [
        -243,
        126,
        -156
      ],
      "max": [
        -93,
        732,
        276.0000915527344
      ],
      "type": "VEC3",
      "bufferView": 0,
      "byteOffset": 207660
    },
    {
      "name": "BALCONY_1_0_texcoords",
      "componentType": 5126,
      "count": 1400,
      "min": [
        -17.5,
        -24.75
      ],
      "max": [
        18.5,
        25.75
      ],
      "type": "VEC2",
      "bufferView": 1,
      "byteOffset": 137832
    },
    {
      "name": "BALCONY_1_0_indices",
      "componentType": 5123,
      "count": 2400,
      "min": [
        0
      ],
      "max": [
        1399
      ],
      "type": "SCALAR",
      "bufferView": 2,
      "byteOffset": 125136
    },
    {
      "name": "BALCONY_1_1_positions",
      "componentType": 5126,
      "count": 360,
      "min": [
        -242.25,
        132,
        -156
      ],
      "max": [
        -141,
        642,
        275.2500915527344
      ],
      "type": "VEC3",
      "bufferView": 0,
      "byteOffset": 224460
    },
    {
      "name": "BALCONY_1_1_texcoords",
      "componentType": 5126,
      "count": 360,
      "min": [
        -17.5,
        -17.5
      ],
      "max": [
        18.5,
        25.25
      ],
      "type": "VEC2",
      "bufferView": 1,
      "byteOffset": 149032
    },
    {
      "name": "BALCONY_1_1_indices",
      "componentType": 5123,
      "count": 540,
      "min": [
        0
      ],
      "max": [
        359
      ],
      "type": "SCALAR",
      "bufferView": 2,
      "byteOffset": 129936
    },
    {
      "name": "LOUVER_1_0_positions",
      "componentType": 5126,
      "count": 2352,
      "min": [
        -231,
        36,
        -330.0000915527344
      ],
      "max": [
        231,
        846.0001220703125,
        198
      ],
      "type": "VEC3",
      "bufferView": 0,
      "byteOffset": 228780
    },
    {
      "name": "LOUVER_1_0_texcoords",
      "componentType": 5126,
      "count": 2352,
      "min": [
        -21.5,
        -63.25
      ],
      "max": [
        22.5,
        22.5
      ],
      "type": "VEC2",
      "bufferView": 1,
      "byteOffset": 151912
    },
    {
      "name": "LOUVER_1_0_indices",
      "componentType": 5123,
      "count": 3528,
      "min": [
        0
      ],
      "max": [
        2351
      ],
      "type": "SCALAR",
      "bufferView": 2,
      "byteOffset": 131016
    },
    {
      "name": "LOUVER_1_1_positions",
      "componentType": 5126,
      "count": 334,
      "min": [
        -231,
        732,
        -330.0000915527344
      ],
      "max": [
        231,
        852.0001220703125,
        -155.99989318847656
      ],
      "type": "VEC3",
      "bufferView": 0,
      "byteOffset": 257004
    },
    {
      "name": "LOUVER_1_1_texcoords",
      "componentType": 5126,
      "count": 334,
      "min": [
        -21.5,
        -63.75
      ],
      "max": [
        22.5,
        -7
      ],
      "type": "VEC2",
      "bufferView": 1,
      "byteOffset": 170728
    },
    {
      "name": "LOUVER_1_1_indices",
      "componentType": 5123,
      "count": 504,
      "min": [
        0
      ],
      "max": [
        333
      ],
      "type": "SCALAR",
      "bufferView": 2,
      "byteOffset": 138072
    },
    {
      "name": "GROUND_FLOOR_1_1_0_positions",
      "componentType": 5126,
      "count": 1238,
      "min": [
        -231,
        -0.00009999999747378752,
        -330.0000915527344
      ],
      "max": [
        243,
        132,
        330.0000915527344
      ],
      "type": "VEC3",
      "bufferView": 0,
      "byteOffset": 261012
    },
    {
      "name": "GROUND_FLOOR_1_1_0_texcoords",
      "componentType": 5126,
      "count": 1238,
      "min": [
        -27.75,
        -26.25
      ],
      "max": [
        28.75,
        28.75
      ],
      "type": "VEC2",
      "bufferView": 1,
      "byteOffset": 173400
    },
    {
      "name": "GROUND_FLOOR_1_1_0_indices",
      "componentType": 5123,
      "count": 2106,
      "min": [
        0
      ],
      "max": [
        1237
      ],
      "type": "SCALAR",
      "bufferView": 2,
      "byteOffset": 139080
    },
    {
      "name": "GROUND_FLOOR_1_1_1_positions",
      "componentType": 5126,
      "count": 4,
      "min": [
        -225,
        11.999899864196777,
        198
      ],
      "max": [
        -82.9999008178711,
        11.999899864196777,
        305.9999084472656
      ],
      "type": "VEC3",
      "bufferView": 0,
      "byteOffset": 275868
    },
    {
      "name": "GROUND_FLOOR_1_1_1_texcoords",
      "componentType": 5126,
      "count": 4,
      "min": [
        -18.25,
        17.75
      ],
      "max": [
        -6.4166998863220215,
        26.75
      ],
      "type": "VEC2",
      "bufferView": 1,
      "byteOffset": 183304
    },
    {
      "name": "GROUND_FLOOR_1_1_1_indices",
      "componentType": 5123,
      "count": 6,
      "min": [
        0
      ],
      "max": [
        3
      ],
      "type": "SCALAR",
      "bufferView": 2,
      "byteOffset": 143292
    }
  ],
  "asset": {
    "generator": "obj2gltf",
    "version": "2.0"
  },
  "buffers": [
    {
      "name": "Apartment_Building_26_obj",
      "byteLength": 602556,
      "uri": "data:application/octet-stream;base64,"
    }
  ],
  "bufferViews": [
    {
      "name": "bufferView_0",
      "buffer": 0,
      "byteLength": 275916,
      "byteOffset": 0,
      "byteStride": 12,
      "target": 34962
    },
    {
      "name": "bufferView_1",
      "buffer": 0,
      "byteLength": 183336,
      "byteOffset": 275916,
      "byteStride": 8,
      "target": 34962
    },
    {
      "name": "bufferView_2",
      "buffer": 0,
      "byteLength": 143304,
      "byteOffset": 459252,
      "target": 34963
    }
  ],
  "materials": [
    {
      "name": "wire_229166215",
      "pbrMetallicRoughness": {
        "baseColorFactor": [
          0.898,
          0.651,
          0.8431,
          1
        ],
        "metallicFactor": 0,
        "roughnessFactor": 0.968
      },
      "emissiveFactor": [
        0,
        0,
        0
      ],
      "alphaMode": "OPAQUE",
      "doubleSided": false
    },
    {
      "name": "wire_225143087",
      "pbrMetallicRoughness": {
        "baseColorFactor": [
          0.8824,
          0.5608,
          0.3412,
          1
        ],
        "metallicFactor": 0,
        "roughnessFactor": 0.968
      },
      "emissiveFactor": [
        0,
        0,
        0
      ],
      "alphaMode": "OPAQUE",
      "doubleSided": false
    },
    {
      "name": "wire_214229166",
      "pbrMetallicRoughness": {
        "baseColorFactor": [
          0.8392,
          0.898,
          0.651,
          1
        ],
        "metallicFactor": 0,
        "roughnessFactor": 0.968
      },
      "emissiveFactor": [
        0,
        0,
        0
      ],
      "alphaMode": "OPAQUE",
      "doubleSided": false
    },
    {
      "name": "Glass_1",
      "pbrMetallicRoughness": {
        "baseColorFactor": [
          0,
          0.0078,
          0.1137,
          1
        ],
        "metallicFactor": 0,
        "roughnessFactor": 0.99
      },
      "emissiveFactor": [
        0,
        0,
        0
      ],
      "alphaMode": "OPAQUE",
      "doubleSided": false
    },
    {
      "name": "wire_113135006",
      "pbrMetallicRoughness": {
        "baseColorFactor": [
          0.4431,
          0.5294,
          0.0235,
          1
        ],
        "metallicFactor": 0,
        "roughnessFactor": 0.968
      },
      "emissiveFactor": [
        0,
        0,
        0
      ],
      "alphaMode": "OPAQUE",
      "doubleSided": false
    },
    {
      "name": "wire_177148027",
      "pbrMetallicRoughness": {
        "baseColorFactor": [
          0.6941,
          0.5804,
          0.1059,
          1
        ],
        "metallicFactor": 0,
        "roughnessFactor": 0.968
      },
      "emissiveFactor": [
        0,
        0,
        0
      ],
      "alphaMode": "OPAQUE",
      "doubleSided": false
    },
    {
      "name": "wire_227153153",
      "pbrMetallicRoughness": {
        "baseColorFactor": [
          0.8902,
          0.6,
          0.6,
          1
        ],
        "metallicFactor": 0,
        "roughnessFactor": 0.968
      },
      "emissiveFactor": [
        0,
        0,
        0
      ],
      "alphaMode": "OPAQUE",
      "doubleSided": false
    },
    {
      "name": "wire_166229229",
      "pbrMetallicRoughness": {
        "baseColorFactor": [
          0.651,
          0.898,
          0.898,
          1
        ],
        "metallicFactor": 0,
        "roughnessFactor": 0.968
      },
      "emissiveFactor": [
        0,
        0,
        0
      ],
      "alphaMode": "OPAQUE",
      "doubleSided": false
    },
    {
      "name": "Glass_2",
      "pbrMetallicRoughness": {
        "baseColorFactor": [
          0.502,
          0.7373,
          1,
          0.75
        ],
        "metallicFactor": 0,
        "roughnessFactor": 0.99
      },
      "emissiveFactor": [
        0,
        0,
        0
      ],
      "alphaMode": "BLEND",
      "doubleSided": true
    },
    {
      "name": "Wood",
      "pbrMetallicRoughness": {
        "baseColorFactor": [
          0.588,
          0.588,
          0.588,
          1
        ],
        "metallicFactor": 0,
        "roughnessFactor": 0.99
      },
      "emissiveFactor": [
        0,
        0,
        0
      ],
      "alphaMode": "OPAQUE",
      "doubleSided": false
    },
    {
      "name": "wire_177028149",
      "pbrMetallicRoughness": {
        "baseColorFactor": [
          0.6941,
          0.1098,
          0.5843,
          1
        ],
        "metallicFactor": 0,
        "roughnessFactor": 0.968
      },
      "emissiveFactor": [
        0,
        0,
        0
      ],
      "alphaMode": "OPAQUE",
      "doubleSided": false
    },
    {
      "name": "Grass",
      "pbrMetallicRoughness": {
        "baseColorFactor": [
          0.588,
          0.588,
          0.588,
          1
        ],
        "metallicFactor": 0,
        "roughnessFactor": 0.99
      },
      "emissiveFactor": [
        0,
        0,
        0
      ],
      "alphaMode": "OPAQUE",
      "doubleSided": false
    }
  ],
  "meshes": [
    {
      "name": "FLOOR_1",
      "primitives": [
        {
          "attributes": {
            "POSITION": 0
          },
          "indices": 1,
          "material": 0,
          "mode": 4
        }
      ]
    },
    {
      "name": "ROOF_1_1",
      "primitives": [
        {
          "attributes": {
            "POSITION": 2,
            "TEXCOORD_0": 3
          },
          "indices": 4,
          "material": 1,
          "mode": 4
        }
      ]
    },
    {
      "name": "DOOR_1",
      "primitives": [
        {
          "attributes": {
            "POSITION": 5,
            "TEXCOORD_0": 6
          },
          "indices": 7,
          "material": 2,
          "mode": 4
        },
        {
          "attributes": {
            "POSITION": 8,
            "TEXCOORD_0": 9
          },
          "indices": 10,
          "material": 3,
          "mode": 4
        }
      ]
    },
    {
      "name": "WINDOW_1",
      "primitives": [
        {
          "attributes": {
            "POSITION": 11,
            "TEXCOORD_0": 12
          },
          "indices": 13,
          "material": 4,
          "mode": 4
        },
        {
          "attributes": {
            "POSITION": 14,
            "TEXCOORD_0": 15
          },
          "indices": 16,
          "material": 3,
          "mode": 4
        }
      ]
    },
    {
      "name": "WALL_1",
      "primitives": [
        {
          "attributes": {
            "POSITION": 17,
            "TEXCOORD_0": 18
          },
          "indices": 19,
          "material": 5,
          "mode": 4
        }
      ]
    },
    {
      "name": "ROOF_2_1",
      "primitives": [
        {
          "attributes": {
            "POSITION": 20,
            "TEXCOORD_0": 21
          },
          "indices": 22,
          "material": 1,
          "mode": 4
        },
        {
          "attributes": {
            "POSITION": 23,
            "TEXCOORD_0": 24
          },
          "indices": 25,
          "material": 3,
          "mode": 4
        }
      ]
    },
    {
      "name": "GROUND_FLOOR_2_1",
      "primitives": [
        {
          "attributes": {
            "POSITION": 26,
            "TEXCOORD_0": 27
          },
          "indices": 28,
          "material": 6,
          "mode": 4
        },
        {
          "attributes": {
            "POSITION": 29,
            "TEXCOORD_0": 30
          },
          "indices": 31,
          "material": 3,
          "mode": 4
        }
      ]
    },
    {
      "name": "BALCONY_1",
      "primitives": [
        {
          "attributes": {
            "POSITION": 32,
            "TEXCOORD_0": 33
          },
          "indices": 34,
          "material": 7,
          "mode": 4
        },
        {
          "attributes": {
            "POSITION": 35,
            "TEXCOORD_0": 36
          },
          "indices": 37,
          "material": 8,
          "mode": 4
        }
      ]
    },
    {
      "name": "LOUVER_1",
      "primitives": [
        {
          "attributes": {
            "POSITION": 38,
            "TEXCOORD_0": 39
          },
          "indices": 40,
          "material": 9,
          "mode": 4
        },
        {
          "attributes": {
            "POSITION": 41,
            "TEXCOORD_0": 42
          },
          "indices": 43,
          "material": 10,
          "mode": 4
        }
      ]
    },
    {
      "name": "GROUND_FLOOR_1_1",
      "primitives": [
        {
          "attributes": {
            "POSITION": 44,
            "TEXCOORD_0": 45
          },
          "indices": 46,
          "material": 6,
          "mode": 4
        },
        {
          "attributes": {
            "POSITION": 47,
            "TEXCOORD_0": 48
          },
          "indices": 49,
          "material": 11,
          "mode": 4
        }
      ]
    }
  ],
  "nodes": [
    {
      "name": "FLOOR",
      "mesh": 0
    },
    {
      "name": "ROOF_1",
      "mesh": 1
    },
    {
      "name": "DOOR",
      "mesh": 2
    },
    {
      "name": "WINDOW",
      "mesh": 3
    },
    {
      "name": "WALL",
      "mesh": 4
    },
    {
      "name": "ROOF_2",
      "mesh": 5
    },
    {
      "name": "GROUND_FLOOR_2",
      "mesh": 6
    },
    {
      "name": "BALCONY",
      "mesh": 7
    },
    {
      "name": "LOUVER",
      "mesh": 8
    },
    {
      "name": "GROUND_FLOOR_1",
      "mesh": 9
    }
  ],
  "scene": 0,
  "scenes": [
    {
      "nodes": [
        0,
        1,
        2,
        3,
        4,
        5,
        6,
        7,
        8,
        9
      ]
    }
  ]
}
